<svg id="visual" viewBox="0 0 900 600" width="900" height="600" xmlns="http://www.w3.org/2000/svg" xmlns:xlink="http://www.w3.org/1999/xlink" version="1.1"><rect x="0" y="0" width="900" height="600" fill="#0f172a"></rect><path d="M0 172L6.8 174C13.7 176 27.3 180 41 177.7C54.7 175.3 68.3 166.7 82 169.7C95.7 172.7 109.3 187.3 123 202.5C136.7 217.7 150.3 233.3 164 237C177.7 240.7 191.3 232.3 204.8 231.3C218.3 230.3 231.7 236.7 245.2 226.5C258.7 216.3 272.3 189.7 286 182.8C299.7 176 313.3 189 327 188.2C340.7 187.3 354.3 172.7 368 171.7C381.7 170.7 395.3 183.3 409 186.8C422.7 190.3 436.3 184.7 450 172.2C463.7 159.7 477.3 140.3 491 151C504.7 161.7 518.3 202.3 532 205.7C545.7 209 559.3 175 573 170.8C586.7 166.7 600.3 192.3 614 194C627.7 195.7 641.3 173.3 654.8 169.2C668.3 165 681.7 179 695.2 177.8C708.7 176.7 722.3 160.3 736 148.3C749.7 136.3 763.3 128.7 777 136.3C790.7 144 804.3 167 818 170.8C831.7 174.7 845.3 159.3 859 160.3C872.7 161.3 886.3 178.7 893.2 187.3L900 196L900 0L893.2 0C886.3 0 872.7 0 859 0C845.3 0 831.7 0 818 0C804.3 0 790.7 0 777 0C763.3 0 749.7 0 736 0C722.3 0 708.7 0 695.2 0C681.7 0 668.3 0 654.8 0C641.3 0 627.7 0 614 0C600.3 0 586.7 0 573 0C559.3 0 545.7 0 532 0C518.3 0 504.7 0 491 0C477.3 0 463.7 0 450 0C436.3 0 422.7 0 409 0C395.3 0 381.7 0 368 0C354.3 0 340.7 0 327 0C313.3 0 299.7 0 286 0C272.3 0 258.7 0 245.2 0C231.7 0 218.3 0 204.8 0C191.3 0 177.7 0 164 0C150.3 0 136.7 0 123 0C109.3 0 95.7 0 82 0C68.3 0 54.7 0 41 0C27.3 0 13.7 0 6.8 0L0 0Z" fill="#0066FF" stroke-linecap="round" stroke-linejoin="miter"></path></svg>